<svg width="100" height="100" viewBox="0 0 100 100" fill="none" xmlns="http://www.w3.org/2000/svg">
<g clip-path="url(#clip0_1_1827)">
<rect width="100" height="100" rx="8.13008" fill="#F7C777"/>
<path d="M46.9031 167.194C49.7784 184.178 183.431 184.944 187.563 174.372C191.695 163.8 167.635 164.58 162.01 154.994C156.385 145.408 194.173 149.86 197.317 136.99C200.461 124.12 154.834 133 154.712 124.804C154.589 116.607 172.802 123.272 172.542 105.828C172.281 88.3848 54.1413 93.3026 53.044 99.6251C51.9468 105.948 129.78 99.1099 130.689 112.129C131.599 125.149 86.1278 128.561 90.091 138.592C94.0541 148.622 159.12 132.726 160.622 137.538C162.124 142.351 44.0278 150.21 46.9031 167.194Z" fill="#78D0C4"/>
<path d="M46.9031 167.194C49.7784 184.178 183.431 184.944 187.563 174.372C191.695 163.8 167.635 164.58 162.01 154.994C156.385 145.408 194.173 149.86 197.317 136.99C200.461 124.12 154.834 133 154.712 124.804C154.589 116.607 172.802 123.272 172.542 105.828C172.281 88.3848 54.1413 93.3026 53.044 99.6251C51.9468 105.948 129.78 99.1099 130.689 112.129C131.599 125.149 86.1278 128.561 90.091 138.592C94.0541 148.622 159.12 132.726 160.622 137.538C162.124 142.351 44.0278 150.21 46.9031 167.194Z" fill="#78D0C4"/>
<path d="M54.119 66.9699C52.4508 66.0166 34.5778 65.0634 28.1436 67.4465L28.3819 78.8852L51.2593 78.4086L54.119 66.9699Z" fill="#363C3A"/>
<path d="M26.9518 74.5973C35.4427 75.3238 29.8614 57.9136 29.8614 57.9136L48.848 58.1658L49.3024 69.8892L55.072 72.9292L46.4223 103.986C46.4223 103.986 18.4609 73.8709 26.9518 74.5973Z" fill="#D5987B"/>
<path d="M36.882 59.4559C41.7372 62.5838 49.1792 61.9424 49.1792 61.9424L49.4635 69.8043L48.6674 85.4474L36.882 59.4559Z" fill="#D09173"/>
<path d="M-21.887 55.4416C-2.95787 47.9475 -17.2161 24.2317 9.56404 39.6038" stroke="#363C3A" stroke-width="0.238307"/>
<path d="M45.063 91.2777C45.063 91.2777 53.4037 84.1285 55.0719 73.4047C66.5106 75.5495 85.4289 84.8435 85.4289 84.8435L83.5225 58.868L94.9612 55.5317C94.9612 55.5317 107.115 86.5116 103.779 100.333C100.442 114.155 72.2299 100.333 72.2299 100.333C72.2299 100.333 56.74 132.505 53.8803 149.186C43.8714 153.714 29.0964 148.233 29.0964 148.233L45.063 91.2777Z" fill="#FFFBF0"/>
<path d="M45.5396 91.2775C45.5396 91.2775 34.3392 77.694 32.9094 75.3109C31.4795 72.9279 26.9517 71.7363 24.5686 72.2129C22.1856 72.6896 12.8916 117.253 10.5085 123.211C8.12548 129.168 -6.64954 144.658 -6.64954 144.658C-2.12171 147.041 9.31701 147.041 17.8961 152.284C17.8961 152.284 32.9094 136.556 36.7223 134.888C40.2969 132.028 44.3481 100.571 45.5396 91.2775Z" fill="#FFFBF0"/>
<path d="M45.5396 90.5629L42.3195 116.538L41.965 119.398L31.4795 138.939L17.896 152.046L12.415 149.425C12.415 149.425 27.19 139.416 30.288 134.888C33.386 130.36 42.3195 116.538 42.3195 116.538L43.8715 89.848L45.5396 90.5629Z" fill="#E8DCBC"/>
<path d="M49.1145 77.4558L44.825 91.5159L52.6891 84.3667L49.1145 77.4558Z" fill="#E8DCBC"/>
<path d="M45.3013 91.0394L38.867 79.839L33.3859 84.1285L45.3013 91.0394Z" fill="#E8DCBC"/>
<path d="M14.0833 108.436L12.6534 115.823C12.6534 115.823 20.0409 120.351 21.4708 117.015C22.9006 113.679 20.7559 97.2355 20.7559 97.2355L14.0833 108.436Z" fill="#E8DCBC"/>
<g filter="url(#filter0_d_1_1827)">
<path d="M54.1192 66.9705C54.1192 66.9705 54.8341 68.6387 57.4554 72.9282L53.6425 89.1331C52.5391 83.444 48.8764 77.4561 48.8764 77.4561L54.1192 66.9705Z" fill="white"/>
</g>
<path d="M50.4804 109.558C49.8224 109.994 31.2415 111.772 31.2415 111.772C31.2415 111.772 27.2308 122.199 28.3274 123.288C29.4241 124.378 45.4724 120.569 47.4464 120.351C49.4204 120.133 50.2611 119.801 53.3318 118.929C56.4025 118.058 56.8412 109.34 57.2798 108.468C58.3736 106.294 66.2726 107.321 66.2726 104.109C66.2726 103.421 59.4595 104.677 58.1572 104.763L61.4472 103.455C61.4472 103.455 65.6146 102.801 65.6146 101.276C65.6146 99.7502 60.7892 101.276 60.7892 101.276L55.9638 102.801C55.9638 102.801 59.2539 100.186 60.1312 99.9682C61.0086 99.7502 65.3953 99.7502 65.3953 98.8785C65.3953 98.0067 61.8859 97.1349 60.1312 97.1349C58.3765 97.1349 55.0865 100.84 54.6478 99.9682C54.2091 99.0964 56.1832 95.3913 56.6218 94.5196C57.0605 93.6478 61.8859 92.994 61.4472 91.6863C61.0086 90.3786 55.9638 91.2504 54.6478 92.5581C53.3318 93.8657 50.2611 99.9682 50.2611 99.9682C50.2611 99.9682 51.1384 109.122 50.4804 109.558Z" fill="#D5987B"/>
<path d="M-19.0417 125.833C-17.1352 110.343 2.64422 76.5031 24.8067 73.8817C34.7934 75.13 26.6353 93.0721 24.8067 98.4273L9.0785 114.394L34.5773 111.772C34.5773 111.772 32.1943 117.492 34.1007 127.501C34.1007 127.501 -18.0885 140.846 -19.0417 125.833Z" fill="#FFFBF0"/>
<g filter="url(#filter1_d_1_1827)">
<path d="M28.1432 67.2091C28.1432 67.2091 25.9719 68.8956 23.8536 72.8068L30.4627 89.1333L39.1053 79.8039L28.1432 67.2091Z" fill="white"/>
</g>
<path d="M3.03505 -24.5776L-8.88257 -1.8148L-9.23477 4.92687C-2.21331 0.762247 20.6461 -0.332856 20.6461 -0.332856C21.1996 -6.66952 28.7852 -21.8905 28.7852 -21.8905L18.3903 -16.7221C16.2303 -15.6481 6.24487 -12.7037 4.09318 -15.3381C1.94148 -17.9725 3.03505 -24.5776 3.03505 -24.5776Z" fill="#FBF6EA"/>
<path d="M-11.8289 68.8242C11.8125 63.3856 -2.01065 42.7687 10.6269 40.8397" stroke="black" stroke-width="0.476613"/>
<g filter="url(#filter2_i_1_1827)">
<path d="M-5.04 35.7894C1.57037 31.1394 13.1742 40.7979 13.1742 40.7979C13.1742 40.7979 6.39522 43.2429 3.93755 44.906C1.47988 46.569 5.56648 53.9601 -1.34133 61.0223C-8.24914 68.0844 -27.121 62.1393 -27.121 62.1393C-27.121 62.1393 -16.274 56.7451 -11.9936 51.9915C-7.71314 47.2378 -11.6504 40.4393 -5.04 35.7894Z" fill="#363C3A"/>
</g>
<path d="M34.1011 60.8911C32.0421 59.6847 17.2222 45.6117 17.2222 45.6117C17.2222 45.6117 32.4562 25.8413 37.6289 30.6007C42.8016 35.3601 42.4777 34.1332 45.2674 36.4592C48.0572 38.7851 52.0594 47.3535 52.0594 47.3535C53.0804 51.2214 55.5212 57.4155 52.1514 60.8911C50.4412 62.655 36.1602 62.0975 34.1011 60.8911Z" fill="#E4A688"/>
<g filter="url(#filter3_i_1_1827)">
<path d="M30.5287 33.4938C30.5287 33.4938 36.5544 33.2061 38.5705 30.9369C38.5705 30.9369 29.09 27.0264 19.0532 33.5838C5.97119 41.8136 12.6574 54.6232 18.9398 58.6103C25.2223 62.5973 26.758 58.1581 31.0032 62.6829L30.2245 58.7608L26.6447 50.1521C28.4901 42.2828 30.5287 33.4938 30.5287 33.4938Z" fill="#363C3A"/>
</g>
<path d="M21.2226 53.3722C20.4681 48.9001 27.3408 50.6921 27.3408 50.6921L33.2297 58.4803C33.2297 58.4803 21.9771 57.8443 21.2226 53.3722Z" fill="#E4A688"/>
<path d="M51.8689 47.1278C49.3278 47.5102 46.8563 46.2009 46.4739 43.6598C46.2589 42.231 46.4862 40.273 47.381 39.2753C48.9812 41.3809 49.8939 42.5929 51.8689 47.1278Z" fill="#DA9B7D"/>
<path d="M42.1768 40.4615C42.0869 39.5403 43.9394 37.4137 45.2829 38.2127C46.6264 39.0116 42.2853 41.5742 42.1768 40.4615Z" fill="white"/>
<path d="M33.7692 47.7909C33.4996 46.7697 35.6131 43.4455 37.1077 44.1434C38.6022 44.8413 35.0473 48.9101 33.7692 47.7909Z" fill="white"/>
<path d="M45.7493 47.8538C47.6392 46.8952 47.9294 46.6416 47.1417 45.0104C46.354 43.3792 41.6033 42.9711 39.3537 38.5073" stroke="#363C3A" stroke-width="0.476613"/>
<path d="M37.6548 44.1468C34.9863 42.7036 33.501 47.708 33.501 47.708" stroke="#363C3A" stroke-width="0.476613"/>
<path d="M45.5983 37.9097C43.4085 36.7254 42.1898 40.8318 42.1898 40.8318" stroke="#363C3A" stroke-width="0.476613"/>
<path d="M32.9091 39.0886C32.9091 39.0886 29.8111 40.2801 29.3345 46.9527" stroke="#363C3A" stroke-width="1.42984" stroke-linecap="round"/>
<path d="M45.7782 34.7996C45.7782 34.7996 41.7269 29.3186 38.629 35.5145" stroke="#363C3A" stroke-width="1.42984" stroke-linecap="round"/>
<path d="M46.2544 52.1963C48.1609 51.9579 49.3524 51.4813 49.829 49.8132" stroke="#363C3A" stroke-width="0.476613" stroke-linecap="round"/>
<path d="M37.54 44.7531C37.6324 45.1033 37.4235 45.462 37.0734 45.5544C36.7232 45.6469 36.3645 45.4379 36.2721 45.0878C36.1797 44.7377 36.3886 44.3789 36.7387 44.2865C37.0888 44.1941 37.4476 44.403 37.54 44.7531Z" fill="#363C3A"/>
<circle cx="45.0261" cy="38.3559" r="0.570002" transform="rotate(-14.786 45.0261 38.3559)" fill="#363C3A"/>
<path d="M21.4654 63.5249C33.7696 51.9084 31.1488 33.6601 31.1488 33.6601C31.1488 33.6601 40.1206 34.3752 47.2813 38.2112C47.2813 38.2112 47.0923 28.6668 39.2677 28.9702C31.443 29.2737 29.3041 31.3646 29.3041 31.3646C29.3041 31.3646 24.3991 44.6915 23.409 47.5956C22.4189 50.4997 21.4654 63.5249 21.4654 63.5249Z" fill="#363C3A"/>
<path d="M9.43418 42.5126L10.3413 38.128L13.2799 39.1375L12.0944 42.3635L9.43418 42.5126Z" fill="white"/>
<circle cx="39.1054" cy="51.4822" r="3.81291" fill="#DA9B7D"/>
<path d="M90.3895 6L62 20.7296L63.3053 50.516C75.3789 53.7893 93 39.387 93 39.387L90.3895 6Z" fill="#FFF2D6"/>
<path d="M63 22L73 28.1765M90 8.5L83.5417 24M73 28.1765L80 32.5L83.5417 24M73 28.1765C71.3333 34.2843 67.3 47 64.5 49M83.5417 24C85.8611 26.8333 90.7 33.6 91.5 38" stroke="#E8DCBC"/>
<path d="M90.0809 35.4917C90.6938 37.9391 92.441 54.1027 92.441 54.1027L86.7377 55.0193C86.7377 55.0193 82.9036 49.2351 82.0081 46.8764C81.1125 44.5178 81.6966 37.968 80.8732 36.8289C80.0498 35.6898 74.406 31.5605 74.7939 30.8176C75.1819 30.0747 81.1085 34.1153 81.1085 34.1153C81.1085 34.1153 75.8526 29.2431 75.9578 28.5889C76.0631 27.9348 82.4663 31.5152 82.4663 31.5152C82.4663 31.5152 76.7255 27.5716 77.6789 26.6513C78.6323 25.7309 83.8799 31.0715 83.8799 31.0715C83.8799 31.0715 79.4804 25.4647 80.4255 25.0128C81.3706 24.5609 89.468 33.0443 90.0809 35.4917Z" fill="#D5987B"/>
<path d="M94.1093 51.7203L81.2407 52.6736L82.1939 62.6824C88.1516 66.4954 97.9222 59.8228 97.9222 59.8228L94.1093 51.7203Z" fill="white"/>
</g>
<defs>
<filter id="filter0_d_1_1827" x="46.97" y="66.9706" width="12.3919" height="25.9754" filterUnits="userSpaceOnUse" color-interpolation-filters="sRGB">
<feFlood flood-opacity="0" result="BackgroundImageFix"/>
<feColorMatrix in="SourceAlpha" type="matrix" values="0 0 0 0 0 0 0 0 0 0 0 0 0 0 0 0 0 0 127 0" result="hardAlpha"/>
<feOffset dy="1.90645"/>
<feGaussianBlur stdDeviation="0.953227"/>
<feComposite in2="hardAlpha" operator="out"/>
<feColorMatrix type="matrix" values="0 0 0 0 0 0 0 0 0 0 0 0 0 0 0 0 0 0 0.25 0"/>
<feBlend mode="normal" in2="BackgroundImageFix" result="effect1_dropShadow_1_1827"/>
<feBlend mode="normal" in="SourceGraphic" in2="effect1_dropShadow_1_1827" result="shape"/>
</filter>
<filter id="filter1_d_1_1827" x="21.9472" y="67.2091" width="19.0646" height="25.7371" filterUnits="userSpaceOnUse" color-interpolation-filters="sRGB">
<feFlood flood-opacity="0" result="BackgroundImageFix"/>
<feColorMatrix in="SourceAlpha" type="matrix" values="0 0 0 0 0 0 0 0 0 0 0 0 0 0 0 0 0 0 127 0" result="hardAlpha"/>
<feOffset dy="1.90645"/>
<feGaussianBlur stdDeviation="0.953227"/>
<feComposite in2="hardAlpha" operator="out"/>
<feColorMatrix type="matrix" values="0 0 0 0 0 0 0 0 0 0 0 0 0 0 0 0 0 0 0.25 0"/>
<feBlend mode="normal" in2="BackgroundImageFix" result="effect1_dropShadow_1_1827"/>
<feBlend mode="normal" in="SourceGraphic" in2="effect1_dropShadow_1_1827" result="shape"/>
</filter>
<filter id="filter2_i_1_1827" x="-27.121" y="34.5237" width="40.2952" height="33.2919" filterUnits="userSpaceOnUse" color-interpolation-filters="sRGB">
<feFlood flood-opacity="0" result="BackgroundImageFix"/>
<feBlend mode="normal" in="SourceGraphic" in2="BackgroundImageFix" result="shape"/>
<feColorMatrix in="SourceAlpha" type="matrix" values="0 0 0 0 0 0 0 0 0 0 0 0 0 0 0 0 0 0 127 0" result="hardAlpha"/>
<feOffset dy="6.19597"/>
<feGaussianBlur stdDeviation="1.66815"/>
<feComposite in2="hardAlpha" operator="arithmetic" k2="-1" k3="1"/>
<feColorMatrix type="matrix" values="0 0 0 0 0 0 0 0 0 0 0 0 0 0 0 0 0 0 0.25 0"/>
<feBlend mode="normal" in2="shape" result="effect1_innerShadow_1_1827"/>
</filter>
<filter id="filter3_i_1_1827" x="11.5366" y="29.7799" width="27.0339" height="35.7626" filterUnits="userSpaceOnUse" color-interpolation-filters="sRGB">
<feFlood flood-opacity="0" result="BackgroundImageFix"/>
<feBlend mode="normal" in="SourceGraphic" in2="BackgroundImageFix" result="shape"/>
<feColorMatrix in="SourceAlpha" type="matrix" values="0 0 0 0 0 0 0 0 0 0 0 0 0 0 0 0 0 0 127 0" result="hardAlpha"/>
<feOffset dy="2.85968"/>
<feGaussianBlur stdDeviation="1.90645"/>
<feComposite in2="hardAlpha" operator="arithmetic" k2="-1" k3="1"/>
<feColorMatrix type="matrix" values="0 0 0 0 0 0 0 0 0 0 0 0 0 0 0 0 0 0 0.25 0"/>
<feBlend mode="normal" in2="shape" result="effect1_innerShadow_1_1827"/>
</filter>
<clipPath id="clip0_1_1827">
<rect width="100" height="100" rx="8.13008" fill="white"/>
</clipPath>
</defs>
</svg>
