<svg width="303" height="81" viewBox="0 0 303 81" fill="none" xmlns="http://www.w3.org/2000/svg">
<g clip-path="url(#clip0_1_2386)">
<rect y="0.5" width="303" height="80" rx="8.13008" fill="#F7C777"/>
<path opacity="0.7" d="M-40.9274 107.473L7.14959 -49.1322C7.14959 -49.1322 155.705 -55.1096 135.805 -10.7028C115.904 33.7039 62.3546 1.10149 43.6455 35.2853C24.9364 69.4692 40.4701 76.5583 28.9616 96.4962C17.4531 116.434 -40.9274 107.473 -40.9274 107.473Z" fill="#F3B54E"/>
<path opacity="0.7" d="M196.881 -66.255L353.997 -19.871C353.997 -19.871 386.667 162.529 327.668 119.246C268.669 75.963 304.362 35.8729 269.978 17.5339C235.594 -0.805185 228.673 14.804 208.612 3.51139C188.551 -7.78125 196.881 -66.255 196.881 -66.255Z" fill="#F3B54E"/>
<path d="M165.278 58.4699C163.61 57.5166 145.737 56.5634 139.302 58.9465L139.541 70.3852L162.418 69.9086L165.278 58.4699Z" fill="#363C3A"/>
<path d="M138.111 66.0973C146.602 66.8238 141.02 49.4136 141.02 49.4136L160.007 49.6658L160.461 61.3892L166.231 64.4292L157.581 95.4863C157.581 95.4863 129.62 65.3709 138.111 66.0973Z" fill="#D5987B"/>
<path d="M148.041 50.9559C152.896 54.0838 160.338 53.4424 160.338 53.4424L160.622 61.3043L159.826 76.9474L148.041 50.9559Z" fill="#D09173"/>
<path d="M89.2719 46.9416C108.201 39.4475 93.9429 15.7317 120.723 31.1038" stroke="#363C3A" stroke-width="0.238307"/>
<path d="M156.222 82.7777C156.222 82.7777 164.563 75.6285 166.231 64.9047C177.67 67.0495 196.588 76.3435 196.588 76.3435L194.681 50.368L206.12 47.0317C206.12 47.0317 218.274 78.0116 214.937 91.8334C211.601 105.655 183.389 91.8334 183.389 91.8334C183.389 91.8334 167.899 124.005 165.039 140.686C155.03 145.214 140.255 139.733 140.255 139.733L156.222 82.7777Z" fill="#FFFBF0"/>
<path d="M156.699 82.7775C156.699 82.7775 145.498 69.194 144.068 66.8109C142.639 64.4279 138.111 63.2363 135.728 63.7129C133.345 64.1896 124.051 108.753 121.668 114.711C119.284 120.668 104.509 136.158 104.509 136.158C109.037 138.541 120.476 138.541 129.055 143.784C129.055 143.784 144.068 128.056 147.881 126.388C151.456 123.528 155.507 92.0714 156.699 82.7775Z" fill="#FFFBF0"/>
<path d="M160.273 68.9558L155.984 83.0159L163.848 75.8667L160.273 68.9558Z" fill="#E8DCBC"/>
<path d="M156.46 82.5394L150.026 71.339L144.545 75.6285L156.46 82.5394Z" fill="#E8DCBC"/>
<g filter="url(#filter0_d_1_2386)">
<path d="M165.278 58.4705C165.278 58.4705 165.993 60.1387 168.614 64.4282L164.801 80.6331C163.698 74.944 160.035 68.9561 160.035 68.9561L165.278 58.4705Z" fill="white"/>
</g>
<path d="M92.1172 117.333C94.0237 101.843 113.803 68.0031 135.966 65.3817C145.952 66.63 137.794 84.5721 135.966 89.9273L120.237 105.894L145.736 103.272C145.736 103.272 143.353 108.992 145.26 119.001C145.26 119.001 93.0705 132.346 92.1172 117.333Z" fill="#FFFBF0"/>
<g filter="url(#filter1_d_1_2386)">
<path d="M139.302 58.7091C139.302 58.7091 137.131 60.3956 135.013 64.3068L141.622 80.6333L150.264 71.3039L139.302 58.7091Z" fill="white"/>
</g>
<path d="M114.194 -33.0776L102.276 -10.3148L101.924 -3.57313C108.946 -7.73775 131.805 -8.83286 131.805 -8.83286C132.359 -15.1695 139.944 -30.3905 139.944 -30.3905L129.549 -25.2221C127.389 -24.1481 117.404 -21.2037 115.252 -23.8381C113.1 -26.4725 114.194 -33.0776 114.194 -33.0776Z" fill="#FBF6EA"/>
<path d="M99.3299 60.3242C122.971 54.8856 109.148 34.2687 121.786 32.3397" stroke="black" stroke-width="0.476613"/>
<g filter="url(#filter2_i_1_2386)">
<path d="M106.119 27.2894C112.729 22.6394 124.333 32.2979 124.333 32.2979C124.333 32.2979 117.554 34.7429 115.096 36.406C112.639 38.069 116.725 45.4601 109.817 52.5223C102.91 59.5844 84.0378 53.6393 84.0378 53.6393C84.0378 53.6393 94.8848 48.2451 99.1652 43.4915C103.446 38.7378 99.5084 31.9393 106.119 27.2894Z" fill="#363C3A"/>
</g>
<path d="M145.26 52.3911C143.201 51.1847 128.381 37.1117 128.381 37.1117C128.381 37.1117 143.615 17.3413 148.788 22.1007C153.96 26.8601 153.637 25.6332 156.426 27.9592C159.216 30.2851 163.218 38.8535 163.218 38.8535C164.239 42.7214 166.68 48.9155 163.31 52.3911C161.6 54.155 147.319 53.5975 145.26 52.3911Z" fill="#E4A688"/>
<g filter="url(#filter3_i_1_2386)">
<path d="M141.687 24.9938C141.687 24.9938 147.713 24.7061 149.729 22.4369C149.729 22.4369 140.249 18.5264 130.212 25.0838C117.13 33.3136 123.816 46.1232 130.099 50.1103C136.381 54.0973 137.917 49.6581 142.162 54.1829L141.383 50.2608L137.804 41.6521C139.649 33.7828 141.687 24.9938 141.687 24.9938Z" fill="#363C3A"/>
</g>
<path d="M132.381 44.8722C131.627 40.4001 138.5 42.1921 138.5 42.1921L144.389 49.9803C144.389 49.9803 133.136 49.3443 132.381 44.8722Z" fill="#E4A688"/>
<path d="M163.028 38.6278C160.487 39.0102 158.015 37.7009 157.633 35.1598C157.418 33.731 157.645 31.773 158.54 30.7753C160.14 32.8809 161.053 34.0929 163.028 38.6278Z" fill="#DA9B7D"/>
<path d="M153.336 31.9615C153.246 31.0403 155.098 28.9137 156.442 29.7127C157.785 30.5116 153.444 33.0742 153.336 31.9615Z" fill="white"/>
<path d="M144.928 39.2909C144.658 38.2697 146.772 34.9455 148.266 35.6434C149.761 36.3413 146.206 40.4101 144.928 39.2909Z" fill="white"/>
<path d="M156.908 39.3538C158.798 38.3952 159.088 38.1416 158.3 36.5104C157.513 34.8792 152.762 34.4711 150.512 30.0073" stroke="#363C3A" stroke-width="0.476613"/>
<path d="M148.814 35.6468C146.145 34.2036 144.66 39.208 144.66 39.208" stroke="#363C3A" stroke-width="0.476613"/>
<path d="M156.757 29.4097C154.567 28.2254 153.349 32.3318 153.349 32.3318" stroke="#363C3A" stroke-width="0.476613"/>
<path d="M144.068 30.5886C144.068 30.5886 140.97 31.7801 140.493 38.4527" stroke="#363C3A" stroke-width="1.42984" stroke-linecap="round"/>
<path d="M156.937 26.2996C156.937 26.2996 152.886 20.8186 149.788 27.0145" stroke="#363C3A" stroke-width="1.42984" stroke-linecap="round"/>
<path d="M157.413 43.6963C159.32 43.4579 160.511 42.9813 160.988 41.3132" stroke="#363C3A" stroke-width="0.476613" stroke-linecap="round"/>
<path d="M148.699 36.2531C148.791 36.6033 148.582 36.962 148.232 37.0544C147.882 37.1469 147.523 36.9379 147.431 36.5878C147.338 36.2377 147.547 35.8789 147.897 35.7865C148.248 35.6941 148.606 35.903 148.699 36.2531Z" fill="#363C3A"/>
<circle cx="156.185" cy="29.8559" r="0.570002" transform="rotate(-14.786 156.185 29.8559)" fill="#363C3A"/>
<path d="M132.624 55.0249C144.928 43.4084 142.308 25.1601 142.308 25.1601C142.308 25.1601 151.279 25.8752 158.44 29.7112C158.44 29.7112 158.251 20.1668 150.426 20.4702C142.602 20.7737 140.463 22.8646 140.463 22.8646C140.463 22.8646 135.558 36.1915 134.568 39.0956C133.578 41.9997 132.624 55.0249 132.624 55.0249Z" fill="#363C3A"/>
<path d="M120.593 34.0126L121.5 29.628L124.439 30.6375L123.253 33.8635L120.593 34.0126Z" fill="white"/>
<circle cx="150.264" cy="42.9822" r="3.81291" fill="#DA9B7D"/>
<path d="M201.389 -1.5L173 13.2296L174.305 43.016C186.379 46.2893 204 31.887 204 31.887L201.389 -1.5Z" fill="#FFF2D6"/>
<path d="M174 14.5L184 20.6765M201 1L194.542 16.5M184 20.6765L191 25L194.542 16.5M184 20.6765C182.333 26.7843 178.3 39.5 175.5 41.5M194.542 16.5C196.861 19.3333 201.7 26.1 202.5 30.5" stroke="#E8DCBC"/>
<path d="M201.24 26.9917C201.853 29.4391 203.6 45.6027 203.6 45.6027L197.897 46.5193C197.897 46.5193 194.063 40.7351 193.167 38.3764C192.271 36.0178 192.855 29.468 192.032 28.3289C191.209 27.1898 185.565 23.0605 185.953 22.3176C186.341 21.5747 192.267 25.6153 192.267 25.6153C192.267 25.6153 187.011 20.7431 187.117 20.0889C187.222 19.4348 193.625 23.0152 193.625 23.0152C193.625 23.0152 187.884 19.0716 188.838 18.1513C189.791 17.2309 195.039 22.5715 195.039 22.5715C195.039 22.5715 190.639 16.9647 191.584 16.5128C192.53 16.0609 200.627 24.5443 201.24 26.9917Z" fill="#D5987B"/>
<path d="M205.268 43.2203L192.4 44.1736L193.353 54.1824C199.31 57.9954 209.081 51.3228 209.081 51.3228L205.268 43.2203Z" fill="white"/>
</g>
<defs>
<filter id="filter0_d_1_2386" x="158.129" y="58.4706" width="12.3919" height="25.9754" filterUnits="userSpaceOnUse" color-interpolation-filters="sRGB">
<feFlood flood-opacity="0" result="BackgroundImageFix"/>
<feColorMatrix in="SourceAlpha" type="matrix" values="0 0 0 0 0 0 0 0 0 0 0 0 0 0 0 0 0 0 127 0" result="hardAlpha"/>
<feOffset dy="1.90645"/>
<feGaussianBlur stdDeviation="0.953227"/>
<feComposite in2="hardAlpha" operator="out"/>
<feColorMatrix type="matrix" values="0 0 0 0 0 0 0 0 0 0 0 0 0 0 0 0 0 0 0.25 0"/>
<feBlend mode="normal" in2="BackgroundImageFix" result="effect1_dropShadow_1_2386"/>
<feBlend mode="normal" in="SourceGraphic" in2="effect1_dropShadow_1_2386" result="shape"/>
</filter>
<filter id="filter1_d_1_2386" x="133.106" y="58.7091" width="19.0645" height="25.7371" filterUnits="userSpaceOnUse" color-interpolation-filters="sRGB">
<feFlood flood-opacity="0" result="BackgroundImageFix"/>
<feColorMatrix in="SourceAlpha" type="matrix" values="0 0 0 0 0 0 0 0 0 0 0 0 0 0 0 0 0 0 127 0" result="hardAlpha"/>
<feOffset dy="1.90645"/>
<feGaussianBlur stdDeviation="0.953227"/>
<feComposite in2="hardAlpha" operator="out"/>
<feColorMatrix type="matrix" values="0 0 0 0 0 0 0 0 0 0 0 0 0 0 0 0 0 0 0.25 0"/>
<feBlend mode="normal" in2="BackgroundImageFix" result="effect1_dropShadow_1_2386"/>
<feBlend mode="normal" in="SourceGraphic" in2="effect1_dropShadow_1_2386" result="shape"/>
</filter>
<filter id="filter2_i_1_2386" x="84.0378" y="26.0237" width="40.2952" height="33.2919" filterUnits="userSpaceOnUse" color-interpolation-filters="sRGB">
<feFlood flood-opacity="0" result="BackgroundImageFix"/>
<feBlend mode="normal" in="SourceGraphic" in2="BackgroundImageFix" result="shape"/>
<feColorMatrix in="SourceAlpha" type="matrix" values="0 0 0 0 0 0 0 0 0 0 0 0 0 0 0 0 0 0 127 0" result="hardAlpha"/>
<feOffset dy="6.19597"/>
<feGaussianBlur stdDeviation="1.66815"/>
<feComposite in2="hardAlpha" operator="arithmetic" k2="-1" k3="1"/>
<feColorMatrix type="matrix" values="0 0 0 0 0 0 0 0 0 0 0 0 0 0 0 0 0 0 0.25 0"/>
<feBlend mode="normal" in2="shape" result="effect1_innerShadow_1_2386"/>
</filter>
<filter id="filter3_i_1_2386" x="122.695" y="21.2799" width="27.0338" height="35.7626" filterUnits="userSpaceOnUse" color-interpolation-filters="sRGB">
<feFlood flood-opacity="0" result="BackgroundImageFix"/>
<feBlend mode="normal" in="SourceGraphic" in2="BackgroundImageFix" result="shape"/>
<feColorMatrix in="SourceAlpha" type="matrix" values="0 0 0 0 0 0 0 0 0 0 0 0 0 0 0 0 0 0 127 0" result="hardAlpha"/>
<feOffset dy="2.85968"/>
<feGaussianBlur stdDeviation="1.90645"/>
<feComposite in2="hardAlpha" operator="arithmetic" k2="-1" k3="1"/>
<feColorMatrix type="matrix" values="0 0 0 0 0 0 0 0 0 0 0 0 0 0 0 0 0 0 0.25 0"/>
<feBlend mode="normal" in2="shape" result="effect1_innerShadow_1_2386"/>
</filter>
<clipPath id="clip0_1_2386">
<rect y="0.5" width="303" height="80" rx="8.13008" fill="white"/>
</clipPath>
</defs>
</svg>
